<svg width="331" height="265" viewBox="0 0 331 265" fill="none" xmlns="http://www.w3.org/2000/svg">
<path d="M211.722 0C220.88 1.80976 229.658 3.83542 238.286 6.27539C238.902 6.44968 239.517 6.62609 240.132 6.80469C250.584 9.84057 260.838 13.5082 271.307 18.1621C272.93 18.8836 278.583 21.2708 279.703 22.1982H279.703L279.703 22.1992C280.982 23.1641 285.857 31.6506 287.122 33.7246C303.68 60.912 315.764 90.7914 322.878 122.129C325.411 133.319 327.385 144.086 328.62 155.557C330.469 173.91 330.788 192.397 329.577 210.808C329.392 213.426 329.287 217.657 329.009 220.074C325.148 223.415 318.911 227.624 314.608 230.561C292.579 245.603 270.358 255.856 245.363 264.185C242.346 261.393 226.805 236.293 227.726 232.568C228.645 231.597 236.16 228.483 237.847 227.775C243.743 225.304 248.853 221.865 254.394 219.017C252.78 217.767 250.058 215.757 248.758 214.296C238.94 218.328 229.665 222.787 219.412 225.636C218.361 225.927 217.288 226.331 216.226 226.639C183.114 236.025 148.205 236.106 115.051 226.876C104.237 223.844 92.8424 219.408 82.5551 214.757C82.23 214.608 81.9072 214.454 81.5863 214.294C79.6851 215.891 77.7611 217.578 75.7416 218.997C84.151 223.612 92.0617 228.168 101.009 231.658C101.595 231.886 102.118 232.331 102.423 232.909C103.093 237.438 88.4015 259.736 85.1312 264.236C59.5697 256.574 32.529 242.6 10.6195 227.086C9.17598 225.765 2.17397 221.563 1.62635 219.986C0.800113 217.608 0.661448 210.769 0.549202 207.928C0.162847 198.156 -0.202577 187.421 0.130257 177.712C0.904933 155.288 4.25584 133.042 10.1107 111.45C11.0234 108.065 11.9705 104.287 13.0258 100.99C20.687 76.736 31.1977 53.5632 44.3178 32C45.0939 30.6975 49.2735 23.4611 50.0287 22.7344C50.1705 22.5766 50.3658 22.4075 50.6049 22.2275C50.6998 22.156 50.802 22.0833 50.9105 22.0088C51.3067 21.737 51.7886 21.4449 52.3334 21.1436C52.6501 20.9684 52.9877 20.7895 53.3412 20.6084C54.767 19.878 56.4528 19.1133 58.0746 18.4092C60.3198 17.4344 62.4435 16.5776 63.5892 16.1016C65.2112 15.432 66.8389 14.7787 68.4721 14.1416C69.1027 13.8956 69.7343 13.6523 70.3666 13.4111C73.12 12.3609 75.8891 11.3573 78.6722 10.3994C79.1351 10.2401 79.5982 10.0815 80.0619 9.9248C80.5407 9.76296 81.0198 9.60247 81.4994 9.44336C83.0077 8.94296 84.5202 8.45664 86.0365 7.9834C92.3471 6.01377 98.7251 4.27978 105.159 2.78516C105.582 2.68675 106.006 2.58949 106.43 2.49316C107.68 2.20913 108.933 1.93293 110.187 1.66699C111.045 1.48525 112.38 1.15783 113.776 0.875C114.317 0.765355 114.867 0.661856 115.402 0.577148C116.836 0.349893 118.162 0.252414 118.912 0.500977L118.91 0.501953C121.423 4.87345 123.552 9.61178 125.665 14.208C126.078 15.1056 127.272 18.3458 127.734 18.8525C128.388 18.6163 129.217 18.4135 130.126 18.2344C130.328 18.1946 130.533 18.1554 130.742 18.1182C132.308 17.8383 134.039 17.6263 135.496 17.457C136.043 17.3936 136.551 17.3351 136.998 17.2822C137.948 17.1739 138.898 17.0719 139.848 16.9746C140.172 16.9414 140.496 16.9089 140.821 16.877C141.697 16.7907 142.573 16.7087 143.45 16.6318C143.644 16.6148 143.839 16.5986 144.034 16.582C146.119 16.4041 148.207 16.2528 150.295 16.1279C150.433 16.1197 150.571 16.1115 150.708 16.1035C152.289 16.0117 153.87 15.9345 155.452 15.873C155.542 15.8695 155.632 15.8657 155.722 15.8623C157.924 15.7791 160.127 15.7255 162.329 15.7012C163.475 15.6885 164.62 15.6842 165.766 15.6875C174.241 15.7117 182.716 16.1708 191.16 17.0664C194.408 17.4138 200.189 18.0157 203.117 18.8564C203.119 16.8892 209.366 3.90479 210.601 1.95605C210.956 1.30798 211.317 0.608318 211.722 0ZM219.413 111.46C215.654 111.76 212.533 112.189 209.079 113.9C187.599 124.542 184.507 156.631 202.667 172.229C208.082 176.878 214.432 179.363 221.518 178.887C240.368 177.235 251.007 159.559 249.295 140.821C248.426 131.844 244.157 123.6 237.438 117.914C231.678 113.045 226.612 111.682 219.413 111.46ZM131.054 169.112C149.87 148.24 136.642 108.411 106.933 111.725C99.2094 112.691 92.9409 116.998 88.1859 123.291C76.7848 138.379 79.2824 161.389 93.9398 173.086C99.4167 177.538 106.352 179.566 113.25 178.737C119.89 178.464 126.603 174.05 131.054 169.112Z" fill="#F5F2E9"/>
</svg>
