<svg width="283" height="283" viewBox="0 0 283 283" fill="none" xmlns="http://www.w3.org/2000/svg">
<rect width="283" height="283" rx="20" fill="#18191B"/>
<path d="M20 133.646C20 132.073 21.4471 130.894 22.9975 131.203L135.729 153.68C136.9 153.913 137.742 154.936 137.742 156.124V200.507C137.742 201.884 136.621 203 135.237 203H22.5052C21.1217 203 20.0001 201.884 20 200.507V133.646Z" fill="#F5F2E9"/>
<path d="M145.258 158.622C145.258 157.048 146.705 155.869 148.255 156.178L166.731 159.861C167.901 160.095 168.743 161.117 168.744 162.305V200.507C168.743 201.884 167.622 203 166.238 203H147.763C146.379 203 145.258 201.884 145.258 200.507V158.622Z" fill="#F5F2E9"/>
<path d="M259.705 146.561C261.327 146.025 263 147.227 263 148.927V200.507C263 201.884 261.878 203 260.495 203H178.764C177.381 203 176.259 201.884 176.259 200.507V161.695C176.259 160.622 176.95 159.669 177.975 159.33L259.705 146.561Z" fill="#F5F2E9"/>
<path d="M145.258 82.4953C145.258 80.7092 147.091 79.5026 148.743 80.2012L250.034 137.282C252.159 138.18 252.035 141.217 249.844 141.941L172.892 153.13C172.479 153.266 172.037 153.293 171.61 153.208L147.271 148.355C146.1 148.122 145.258 147.099 145.258 145.911V82.4953Z" fill="#F5F2E9"/>
<path d="M134.257 80.2012C135.909 79.5026 137.742 80.7092 137.742 82.4953V143.413C137.742 144.987 136.295 146.166 134.745 145.857L36.8444 126.337C34.4289 125.856 34.0896 122.558 36.3569 121.599L134.257 80.2012Z" fill="#F5F2E9"/>
</svg>
