<svg width="286" height="286" viewBox="0 0 286 286" fill="none" xmlns="http://www.w3.org/2000/svg">
<path d="M144.659 0C145.181 1.60731 144.974 3.51035 144.901 5.22168C144.961 10.9687 146.417 16.9215 147.015 22.5527C154.558 61.3065 177.551 95.4707 210.856 117.412C226.3 127.569 240.9 134.239 258.946 138.53C261.011 139.021 267.522 140.638 269.526 140.673C274.889 141.299 280.645 142.076 286 142.476C285.432 142.828 272.233 144.178 271.355 144.027C263.305 145.711 253.264 147.898 245.511 150.526C213.783 161.431 186.669 182.467 168.478 210.289C156.717 228.157 151.718 241.524 147.076 262.02C145.914 268.355 145.268 272.73 144.917 279.191C144.977 281.338 144.624 283.836 144.387 286C144.142 283.524 144.034 282.044 144.082 279.511C143.874 273.793 142.992 267.923 141.973 262.3C137.324 241.96 132.97 229.981 121.687 212.093C103.452 183.316 75.7688 161.548 43.2354 150.404C36.7629 148.196 29.321 146.522 22.6328 144.977C17.3238 144.808 11.1449 142.763 4.63477 142.991C2.74737 143.075 2.01134 143.083 0.144531 142.86L0 142.523C1.81146 142.028 3.04012 142.159 4.92383 142.211C9.01419 142.46 18.775 140.747 23.1035 140.018C44.597 135.119 57.5046 130.695 76.2881 118.625C104.606 100.479 125.927 73.507 136.843 42.0215C139.094 35.4358 140.462 29.1951 141.917 22.4424C142.92 16.385 143.831 11.0692 144.102 4.91211C144.026 3.21627 143.846 1.66644 144.299 0.03125L144.659 0Z" fill="#151617"/>
</svg>
